<svg xmlns="http://www.w3.org/2000/svg" width="200mm" height="200mm" viewBox="0 0 200 200"><path d="M0 0a13.158 13.158 0 0 1-4.181-2.824 13.073 13.073 0 0 1-2.826-4.188 12.994 12.994 0 0 1-1.036-5.123c0-1.775.346-3.492 1.036-5.116A13.18 13.18 0 0 1 0-24.254a12.9 12.9 0 0 1 5.122-1.039c1.775 0 3.499.344 5.127 1.039a13.157 13.157 0 0 1 4.179 2.813 13.3 13.3 0 0 1 2.827 4.19 13.059 13.059 0 0 1 1.031 5.116 13.06 13.06 0 0 1-1.031 5.123 13.19 13.19 0 0 1-2.827 4.188A13.239 13.239 0 0 1 10.249 0a13.165 13.165 0 0 1-5.127 1.033A13.09 13.09 0 0 1 0 0" style="fill:#e1002b;fill-opacity:1;fill-rule:nonzero;stroke:none" transform="matrix(7.59619 0 0 -7.59705 61.096 7.848)"/><path d="m0 0-.819-.005a.945.945 0 0 0-.257-.653.972.972 0 0 0-.649-.319h-7.439c-.589 0-1.15-.302-1.472-.812a1.816 1.816 0 0 1-.284-.965h.822a.92.92 0 0 0 .264.656c.162.182.387.29.637.309h7.426c.613 0 1.167.314 1.491.812.182.292.28.635.28.977" style="fill:#fff;fill-opacity:1;fill-rule:nonzero;stroke:none" transform="matrix(7.59619 0 0 -7.59705 141.753 41.693)"/><path d="M0 0h-2.845a.804.804 0 0 1-.569-.229.852.852 0 0 1-.227-.566v-1.809c0-.212.09-.412.227-.562a.813.813 0 0 1 .569-.234h2.021v-.159a.794.794 0 0 1 .803-.804h4.103c.217 0 .424.08.566.238a.761.761 0 0 1 .241.566V0H0m-.812-2.225h-1.532a.105.105 0 0 0-.085.039l-.032.083v.824l.032.084.085.031h1.532v-1.061" style="fill:#fff;fill-opacity:1;fill-rule:nonzero;stroke:none" transform="matrix(7.59619 0 0 -7.59705 47.454 70.672)"/><g style="fill:#fff"><path d="M0 0c.004.495-.191.967-.534 1.313a1.866 1.866 0 0 1-1.335.536h-7.566a1.816 1.816 0 0 1-1.84-1.823v-3.25h-9.966v-3.203h9.966v-3.594h3.226v3.594h6.227c.482 0 .944.19 1.289.528.34.337.533.808.533 1.294V0m-3.646-1.351a.403.403 0 0 0 .293-.13.397.397 0 0 0 .129-.288v-1.029a.42.42 0 0 0-.129-.302.441.441 0 0 0-.293-.124h-4.403v1.455a.4.4 0 0 0 .122.288c.078.085.191.13.3.13h3.981" style="fill:#fff;fill-opacity:1;fill-rule:nonzero;stroke:none" transform="matrix(7.59619 0 0 -7.59705 181.032 84.153)"/></g><g style="fill:#e1002b;fill-opacity:1"><path d="M0 0h-.466a.167.167 0 0 0-.117.053c-.029.019-.041.06-.041.113v1.496h-.574v-1.84c0-.083.03-.16.09-.215a.297.297 0 0 1 .224-.099H.479c.083 0 .163.033.223.099.056.055.09.132.09.215v1.84H.217V.166C.217.113.196.072.171.053.134.016.104 0 .059 0H0" style="fill:#e1002b;fill-opacity:1;fill-rule:nonzero;stroke:none" transform="matrix(7.59619 0 0 -7.59705 106.658 125.113)"/></g><g style="fill:#e1002b;fill-opacity:1"><path d="M0 0a.167.167 0 0 0-.049-.115.146.146 0 0 0-.107-.041h-.578a.156.156 0 0 0-.112.052c-.027.02-.048.061-.048.114v.845c.005.045.021.082.062.102a.112.112 0 0 0 .098.052h.574c.049 0 .085-.015.111-.052C-.01.93 0 .886 0 .828L.577.816v.368a.339.339 0 0 1-.1.232.31.31 0 0 1-.219.09H-1.139a.376.376 0 0 1-.234-.09.347.347 0 0 1-.084-.232V-.334c0-.083.028-.16.084-.215a.315.315 0 0 1 .234-.099H.271c.079 0 .166.041.21.101.06.053.096.139.096.22v.358L0 0" style="fill:#e1002b;fill-opacity:1;fill-rule:nonzero;stroke:none" transform="matrix(7.59619 0 0 -7.59705 90.197 123.925)"/></g><g style="fill:#e1002b;fill-opacity:1"><path d="M0 0a.163.163 0 0 0 .091-.041C.116-.057.132-.09.125-.129v-.1L.091-.301 0-.342h-1.354v-.492H.393c.085 0 .158.037.223.1A.298.298 0 0 1 .71-.52V.17a.35.35 0 0 1-.094.228.348.348 0 0 1-.223.082H-.649a.114.114 0 0 0-.086.047.096.096 0 0 0-.048.086V.7c.014.027.014.06.048.088a.124.124 0 0 0 .086.035H.71v.497h-1.743a.31.31 0 0 1-.214-.09.31.31 0 0 1-.107-.232V.307c0-.078.036-.164.094-.223A.331.331 0 0 1-1.04 0H0" style="fill:#e1002b;fill-opacity:1;fill-rule:nonzero;stroke:none" transform="matrix(7.59619 0 0 -7.59705 70.888 122.516)"/></g><path d="M0 0h-.126L-.2-.187l-.805-1.967h.575l.137.34h.962l.14-.34h.573L.584-.187.503 0H0m-.109-1.361.262.623.033.105.292-.728z" style="fill:#e1002b;fill-opacity:1;fill-rule:nonzero;stroke:none" transform="matrix(7.59619 0 0 -7.59705 47.535 112.486)"/><g style="fill:#e1002b;fill-opacity:1"><path d="M0 0c0 .088-.018.174-.079.221a.374.374 0 0 1-.224.101h-1.634V-.51h-.708v-.435h.708v-.887h.574v.887h1.06c.09 0 .166.023.224.078A.273.273 0 0 1 0-.641V0m-.694-.135.084-.029c.03-.031.044-.063.044-.09v-.123c0-.039-.014-.062-.044-.088C-.621-.49-.666-.51-.694-.51h-.669v.375h.669" style="fill:#e1002b;fill-opacity:1;fill-rule:nonzero;stroke:none" transform="matrix(7.59619 0 0 -7.59705 39.768 114.934)"/></g><path d="M239.678 167.793h3.925v-14.626h-3.925z" style="fill:#e1002b;fill-opacity:1;fill-rule:nonzero;stroke:none;stroke-width:6.78981" transform="matrix(1.11876 0 0 1.1189 -115.69 -58.888)"/><g style="fill:#e1002b;fill-opacity:1"><path d="M0 0a.224.224 0 0 0-.051-.115c-.025-.033-.066-.041-.11-.041H-.73c-.05 0-.087.015-.114.052-.029.02-.043.061-.043.114v.845c0 .045.022.082.043.102a.158.158 0 0 0 .121.052h.562c.044 0 .085-.015.11-.052C-.014.937.005.886 0 .828L.572.816v.368a.332.332 0 0 1-.093.232.371.371 0 0 1-.222.09h-1.412a.347.347 0 0 1-.211-.09.308.308 0 0 1-.101-.232V-.334c0-.083.045-.16.101-.215a.277.277 0 0 1 .211-.099H.264c.087 0 .166.041.222.101a.314.314 0 0 1 .086.22v.358L0 0" style="fill:#e1002b;fill-opacity:1;fill-rule:nonzero;stroke:none" transform="matrix(7.59619 0 0 -7.59705 126.902 123.925)"/></g><g style="fill:#e1002b;fill-opacity:1"><path d="M0 0a.16.16 0 0 0-.053-.115c-.013-.033-.062-.041-.108-.041h-.566c-.044 0-.084.015-.108.052-.032.02-.052.061-.052.114v.845c0 .045.02.082.052.102.024.037.064.052.108.052h.566c.046 0 .095-.015.108-.052C-.01.93 0 .886 0 .828L.581.816v.368a.35.35 0 0 1-.098.232.379.379 0 0 1-.229.09h-1.4a.341.341 0 0 1-.221-.09.333.333 0 0 1-.094-.232V-.334c0-.083.033-.16.094-.215a.288.288 0 0 1 .221-.099H.269a.368.368 0 0 1 .221.101.332.332 0 0 1 .091.22v.358L0 0" style="fill:#e1002b;fill-opacity:1;fill-rule:nonzero;stroke:none" transform="matrix(7.59619 0 0 -7.59705 145.047 123.925)"/></g><path d="m0 0-2.845.002a.522.522 0 0 1-.364-.145.52.52 0 0 1-.15-.367v-1.808a.513.513 0 0 1 .514-.513h2.299v-.442c0-.139.056-.272.154-.368a.494.494 0 0 1 .371-.158h4.103c.141 0 .272.055.363.158.1.096.159.229.159.368V0H0m-.812-1.939h-1.532a.102.102 0 0 0-.085.039l-.032.083v.823l.032.084.085.031h1.532v-1.06" style="fill:#e1002b;fill-opacity:1;fill-rule:nonzero;stroke:none" transform="matrix(7.59619 0 0 -7.59705 47.454 72.838)"/><path d="M0 0a.39.39 0 0 1-.285-.112.336.336 0 0 1-.106-.282v-.823c0-.112.037-.218.106-.287A.391.391 0 0 1 0-1.622h1.805L1.812 0H0m1.531-1.339H0a.104.104 0 0 0-.085.039l-.032.083v.823l.032.084L0-.278h1.531v-1.061" style="fill:#fff;fill-opacity:1;fill-rule:nonzero;stroke:none" transform="matrix(7.59619 0 0 -7.59705 29.65 77.401)"/></svg>